<svg xmlns="http://www.w3.org/2000/svg" xmlns:xlink="http://www.w3.org/1999/xlink" width="218" height="268" viewBox="0 0 218 268">
  <defs>
    <linearGradient id="linear-gradient" x1="0.5" x2="0.863" y2="1" gradientUnits="objectBoundingBox">
      <stop offset="0" stop-color="#8e07de"/>
      <stop offset="0.399" stop-color="#b431fc"/>
      <stop offset="1" stop-color="#cc12cc"/>
    </linearGradient>
    <filter id="Rectangle_1" x="0" y="0" width="218" height="268" filterUnits="userSpaceOnUse">
      <feOffset dy="3" input="SourceAlpha"/>
      <feGaussianBlur stdDeviation="3" result="blur"/>
      <feFlood flood-opacity="0.161"/>
      <feComposite operator="in" in2="blur"/>
      <feComposite in="SourceGraphic"/>
    </filter>
    <filter id="Icon_awesome-book" x="61" y="80.714" width="95.5" height="106.571" filterUnits="userSpaceOnUse">
      <feOffset dy="3" input="SourceAlpha"/>
      <feGaussianBlur stdDeviation="3" result="blur-2"/>
      <feFlood flood-opacity="0.161"/>
      <feComposite operator="in" in2="blur-2"/>
      <feComposite in="SourceGraphic"/>
    </filter>
    <filter id="Icon_awesome-book-2" x="61" y="74.714" width="95.5" height="106.571" filterUnits="userSpaceOnUse">
      <feOffset dy="-3" input="SourceAlpha"/>
      <feGaussianBlur stdDeviation="3" result="blur-3"/>
      <feFlood flood-color="#fff" flood-opacity="0.161"/>
      <feComposite operator="in" in2="blur-3"/>
      <feComposite in="SourceGraphic"/>
    </filter>
    <filter id="Rectangle_2" x="89" y="106" width="45" height="13" filterUnits="userSpaceOnUse">
      <feOffset dy="1" input="SourceAlpha"/>
      <feGaussianBlur stdDeviation="1" result="blur-4"/>
      <feFlood flood-opacity="0.102"/>
      <feComposite operator="in" in2="blur-4"/>
      <feComposite in="SourceGraphic"/>
    </filter>
    <filter id="Rectangle_3" x="83" y="109" width="57" height="25" filterUnits="userSpaceOnUse">
      <feOffset dy="-1" input="SourceAlpha"/>
      <feGaussianBlur stdDeviation="3" result="blur-5"/>
      <feFlood flood-color="#fff" flood-opacity="0.161"/>
      <feComposite operator="in" in2="blur-5"/>
      <feComposite in="SourceGraphic"/>
    </filter>
    <filter id="Rectangle_4" x="89" y="104" width="45" height="13" filterUnits="userSpaceOnUse">
      <feOffset dy="-1" input="SourceAlpha"/>
      <feGaussianBlur stdDeviation="1" result="blur-6"/>
      <feFlood flood-color="#fff" flood-opacity="0.102"/>
      <feComposite operator="in" in2="blur-6"/>
      <feComposite in="SourceGraphic"/>
    </filter>
    <filter id="Rectangle_5" x="89" y="117" width="45" height="13" filterUnits="userSpaceOnUse">
      <feOffset dy="1" input="SourceAlpha"/>
      <feGaussianBlur stdDeviation="1" result="blur-7"/>
      <feFlood flood-opacity="0.102"/>
      <feComposite operator="in" in2="blur-7"/>
      <feComposite in="SourceGraphic"/>
    </filter>
    <filter id="Path_3" x="72" y="143" width="74" height="30" filterUnits="userSpaceOnUse">
      <feOffset dy="-1" input="SourceAlpha"/>
      <feGaussianBlur stdDeviation="3" result="blur-8"/>
      <feFlood flood-color="#fff" flood-opacity="0.161"/>
      <feComposite operator="in" in2="blur-8"/>
      <feComposite in="SourceGraphic"/>
    </filter>
    <filter id="Path_4" x="78" y="151" width="62" height="18" filterUnits="userSpaceOnUse">
      <feOffset dy="1" input="SourceAlpha"/>
      <feGaussianBlur stdDeviation="1" result="blur-9"/>
      <feFlood flood-opacity="0.102"/>
      <feComposite operator="in" in2="blur-9"/>
      <feComposite in="SourceGraphic"/>
    </filter>
  </defs>
  <g id="Group_5" data-name="Group 5" transform="translate(9 6)">
    <g transform="matrix(1, 0, 0, 1, -9, -6)" filter="url(#Rectangle_1)">
      <g id="Rectangle_1-2" data-name="Rectangle 1" transform="translate(9 6)" stroke="#6c1ffc" stroke-width="8" fill="url(#linear-gradient)">
        <rect width="200" height="250" rx="50" stroke="none"/>
        <rect x="4" y="4" width="192" height="242" rx="46" fill="none"/>
      </g>
    </g>
    <g transform="matrix(1, 0, 0, 1, -9, -6)" filter="url(#Icon_awesome-book)">
      <path id="Icon_awesome-book-3" data-name="Icon awesome-book" d="M77.5,62.277V4.152A4.142,4.142,0,0,0,73.348,0H16.607A16.611,16.611,0,0,0,0,16.607V71.964A16.611,16.611,0,0,0,16.607,88.571H73.348A4.142,4.142,0,0,0,77.5,84.42V81.652a4.184,4.184,0,0,0-1.54-3.235,38.578,38.578,0,0,1,0-12.922A4.123,4.123,0,0,0,77.5,62.277Zm-55.357-39.1a1.041,1.041,0,0,1,1.038-1.038H59.855a1.041,1.041,0,0,1,1.038,1.038v3.46a1.041,1.041,0,0,1-1.038,1.038H23.181a1.041,1.041,0,0,1-1.038-1.038Zm0,11.071a1.041,1.041,0,0,1,1.038-1.038H59.855a1.041,1.041,0,0,1,1.038,1.038v3.46a1.041,1.041,0,0,1-1.038,1.038H23.181a1.041,1.041,0,0,1-1.038-1.038ZM65.979,77.5H16.607a5.536,5.536,0,1,1,0-11.071H65.979A62.279,62.279,0,0,0,65.979,77.5Z" transform="translate(70 86.71)" fill="#fff"/>
    </g>
    <g transform="matrix(1, 0, 0, 1, -9, -6)" filter="url(#Icon_awesome-book-2)">
      <path id="Icon_awesome-book-4" data-name="Icon awesome-book" d="M77.5,62.277V4.152A4.142,4.142,0,0,0,73.348,0H16.607A16.611,16.611,0,0,0,0,16.607V71.964A16.611,16.611,0,0,0,16.607,88.571H73.348A4.142,4.142,0,0,0,77.5,84.42V81.652a4.184,4.184,0,0,0-1.54-3.235,38.578,38.578,0,0,1,0-12.922A4.123,4.123,0,0,0,77.5,62.277Zm-55.357-39.1a1.041,1.041,0,0,1,1.038-1.038H59.855a1.041,1.041,0,0,1,1.038,1.038v3.46a1.041,1.041,0,0,1-1.038,1.038H23.181a1.041,1.041,0,0,1-1.038-1.038Zm0,11.071a1.041,1.041,0,0,1,1.038-1.038H59.855a1.041,1.041,0,0,1,1.038,1.038v3.46a1.041,1.041,0,0,1-1.038,1.038H23.181a1.041,1.041,0,0,1-1.038-1.038ZM65.979,77.5H16.607a5.536,5.536,0,1,1,0-11.071H65.979A62.279,62.279,0,0,0,65.979,77.5Z" transform="translate(70 86.71)" fill="#fff"/>
    </g>
    <g transform="matrix(1, 0, 0, 1, -9, -6)" filter="url(#Rectangle_2)">
      <rect id="Rectangle_2-2" data-name="Rectangle 2" width="39" height="7" rx="1" transform="translate(92 108)" fill="#fff"/>
    </g>
    <g transform="matrix(1, 0, 0, 1, -9, -6)" filter="url(#Rectangle_3)">
      <rect id="Rectangle_3-2" data-name="Rectangle 3" width="39" height="7" rx="1" transform="translate(92 119)" fill="#fff"/>
    </g>
    <g transform="matrix(1, 0, 0, 1, -9, -6)" filter="url(#Rectangle_4)">
      <rect id="Rectangle_4-2" data-name="Rectangle 4" width="39" height="7" rx="1" transform="translate(92 108)" fill="#fff"/>
    </g>
    <g transform="matrix(1, 0, 0, 1, -9, -6)" filter="url(#Rectangle_5)">
      <rect id="Rectangle_5-2" data-name="Rectangle 5" width="39" height="7" rx="1" transform="translate(92 119)" fill="#fff"/>
    </g>
    <g transform="matrix(1, 0, 0, 1, -9, -6)" filter="url(#Path_3)">
      <path id="Path_3-2" data-name="Path 3" d="M6,0H55a1,1,0,0,1,1,1,15.5,15.5,0,0,0-1,5,15.5,15.5,0,0,0,1,5,1,1,0,0,1-1,1H6A6,6,0,0,1,6,0Z" transform="translate(81 153)" fill="#fff"/>
    </g>
    <g transform="matrix(1, 0, 0, 1, -9, -6)" filter="url(#Path_4)">
      <path id="Path_4-2" data-name="Path 4" d="M6,0H55a1,1,0,0,1,1,1,15.5,15.5,0,0,0-1,5,15.5,15.5,0,0,0,1,5,1,1,0,0,1-1,1H6A6,6,0,0,1,6,0Z" transform="translate(81 153)" fill="#fff"/>
    </g>
  </g>
</svg>
