<svg xmlns="http://www.w3.org/2000/svg" xmlns:xlink="http://www.w3.org/1999/xlink" width="218" height="268" viewBox="0 0 218 268">
  <defs>
    <linearGradient id="linear-gradient" x1="0.5" x2="0.863" y2="1" gradientUnits="objectBoundingBox">
      <stop offset="0" stop-color="#8e07de"/>
      <stop offset="0.399" stop-color="#b431fc"/>
      <stop offset="1" stop-color="#cc12cc"/>
    </linearGradient>
    <filter id="Rectangle_1" x="0" y="0" width="218" height="268" filterUnits="userSpaceOnUse">
      <feOffset dy="3" input="SourceAlpha"/>
      <feGaussianBlur stdDeviation="3" result="blur"/>
      <feFlood flood-opacity="0.161"/>
      <feComposite operator="in" in2="blur"/>
      <feComposite in="SourceGraphic"/>
    </filter>
    <linearGradient id="linear-gradient-2" x2="0.5" xlink:href="#linear-gradient"/>
    <filter id="Icon_ionic-md-flower" x="56" y="74" width="100.941" height="107.852" filterUnits="userSpaceOnUse">
      <feOffset dx="-3" dy="-3" input="SourceAlpha"/>
      <feGaussianBlur stdDeviation="3" result="blur-2"/>
      <feFlood flood-color="#fff" flood-opacity="0.102"/>
      <feComposite operator="in" in2="blur-2"/>
      <feComposite in="SourceGraphic"/>
    </filter>
    <filter id="Icon_ionic-md-flower-2" x="62" y="80" width="100.941" height="107.852" filterUnits="userSpaceOnUse">
      <feOffset dx="3" dy="3" input="SourceAlpha"/>
      <feGaussianBlur stdDeviation="3" result="blur-3"/>
      <feFlood flood-opacity="0.102"/>
      <feComposite operator="in" in2="blur-3"/>
      <feComposite in="SourceGraphic"/>
    </filter>
    <filter id="Ellipse_1" x="82" y="104" width="52" height="52" filterUnits="userSpaceOnUse">
      <feOffset dx="-1" dy="-1" input="SourceAlpha"/>
      <feGaussianBlur stdDeviation="3" result="blur-4"/>
      <feFlood flood-opacity="0.063"/>
      <feComposite operator="in" in2="blur-4"/>
      <feComposite in="SourceGraphic"/>
    </filter>
    <filter id="Ellipse_2" x="84" y="106" width="52" height="52" filterUnits="userSpaceOnUse">
      <feOffset dx="1" dy="1" input="SourceAlpha"/>
      <feGaussianBlur stdDeviation="3" result="blur-5"/>
      <feFlood flood-opacity="0.063"/>
      <feComposite operator="in" in2="blur-5"/>
      <feComposite in="SourceGraphic"/>
    </filter>
  </defs>
  <g id="Group_2" data-name="Group 2" transform="translate(9 6)">
    <g transform="matrix(1, 0, 0, 1, -9, -6)" filter="url(#Rectangle_1)">
      <g id="Rectangle_1-2" data-name="Rectangle 1" transform="translate(9 6)" stroke="#6c1ffc" stroke-width="8" fill="url(#linear-gradient)">
        <rect width="200" height="250" rx="50" stroke="none"/>
        <rect x="4" y="4" width="192" height="242" rx="46" fill="none"/>
      </g>
    </g>
    <g transform="matrix(1, 0, 0, 1, -9, -6)" filter="url(#Icon_ionic-md-flower)">
      <path id="Icon_ionic-md-flower-3" data-name="Icon ionic-md-flower" d="M78.175,48.3a15.991,15.991,0,0,0-6.933-30.5,16.265,16.265,0,0,0-9.2,2.829l.13-1.21a16.2,16.2,0,0,0-32.4,0l.13,1.21A16.242,16.242,0,0,0,4.5,33.851,16,16,0,0,0,13.766,48.3,15.991,15.991,0,0,0,20.7,78.8a16.265,16.265,0,0,0,9.2-2.829l-.13,1.21a16.2,16.2,0,0,0,32.4,0l-.13-1.21A16.08,16.08,0,1,0,78.175,48.3ZM45.97,64.349A16.049,16.049,0,1,1,62.17,48.3,16.132,16.132,0,0,1,45.97,64.349Z" transform="translate(63.5 82.63)" fill="url(#linear-gradient-2)"/>
    </g>
    <g transform="matrix(1, 0, 0, 1, -9, -6)" filter="url(#Icon_ionic-md-flower-2)">
      <path id="Icon_ionic-md-flower-4" data-name="Icon ionic-md-flower" d="M78.175,48.3a15.991,15.991,0,0,1-6.933,30.5,16.265,16.265,0,0,1-9.2-2.829l.13,1.21a16.2,16.2,0,0,1-32.4,0l.13-1.21A16.242,16.242,0,0,1,4.5,62.751,16,16,0,0,1,13.766,48.3,15.991,15.991,0,0,1,20.7,17.8a16.265,16.265,0,0,1,9.2,2.829l-.13-1.21a16.2,16.2,0,0,1,32.4,0l-.13,1.21A16.08,16.08,0,1,1,78.175,48.3ZM45.97,32.253A16.049,16.049,0,1,0,62.17,48.3,16.132,16.132,0,0,0,45.97,32.253Z" transform="translate(63.5 82.63)" fill="#fff"/>
    </g>
    <g transform="matrix(1, 0, 0, 1, -9, -6)" filter="url(#Ellipse_1)">
      <circle id="Ellipse_1-2" data-name="Ellipse 1" cx="17" cy="17" r="17" transform="translate(92 114)" fill="#fff"/>
    </g>
    <g transform="matrix(1, 0, 0, 1, -9, -6)" filter="url(#Ellipse_2)">
      <circle id="Ellipse_2-2" data-name="Ellipse 2" cx="17" cy="17" r="17" transform="translate(92 114)" fill="#fff"/>
    </g>
  </g>
</svg>
