<svg xmlns="http://www.w3.org/2000/svg" xmlns:xlink="http://www.w3.org/1999/xlink" width="218" height="268" viewBox="0 0 218 268">
  <defs>
    <linearGradient id="linear-gradient" x1="0.5" x2="0.863" y2="1" gradientUnits="objectBoundingBox">
      <stop offset="0" stop-color="#8e07de"/>
      <stop offset="0.399" stop-color="#b431fc"/>
      <stop offset="1" stop-color="#cc12cc"/>
    </linearGradient>
    <filter id="Rectangle_1" x="0" y="0" width="218" height="268" filterUnits="userSpaceOnUse">
      <feOffset dy="3" input="SourceAlpha"/>
      <feGaussianBlur stdDeviation="3" result="blur"/>
      <feFlood flood-opacity="0.161"/>
      <feComposite operator="in" in2="blur"/>
      <feComposite in="SourceGraphic"/>
    </filter>
    <filter id="Icon_metro-sun" x="49.501" y="74.501" width="118.851" height="118.851" filterUnits="userSpaceOnUse">
      <feOffset dy="3" input="SourceAlpha"/>
      <feGaussianBlur stdDeviation="3" result="blur-2"/>
      <feFlood flood-opacity="0.161"/>
      <feComposite operator="in" in2="blur-2"/>
      <feComposite in="SourceGraphic"/>
    </filter>
    <filter id="Icon_metro-sun-2" x="49.501" y="68.501" width="118.851" height="118.851" filterUnits="userSpaceOnUse">
      <feOffset dy="-3" input="SourceAlpha"/>
      <feGaussianBlur stdDeviation="3" result="blur-3"/>
      <feFlood flood-color="#fff" flood-opacity="0.161"/>
      <feComposite operator="in" in2="blur-3"/>
      <feComposite in="SourceGraphic"/>
    </filter>
    <filter id="Ellipse_1" x="82" y="104" width="52" height="52" filterUnits="userSpaceOnUse">
      <feOffset dx="-1" dy="-1" input="SourceAlpha"/>
      <feGaussianBlur stdDeviation="3" result="blur-4"/>
      <feFlood flood-opacity="0.063"/>
      <feComposite operator="in" in2="blur-4"/>
      <feComposite in="SourceGraphic"/>
    </filter>
    <filter id="Ellipse_2" x="84" y="106" width="52" height="52" filterUnits="userSpaceOnUse">
      <feOffset dx="1" dy="1" input="SourceAlpha"/>
      <feGaussianBlur stdDeviation="3" result="blur-5"/>
      <feFlood flood-opacity="0.063"/>
      <feComposite operator="in" in2="blur-5"/>
      <feComposite in="SourceGraphic"/>
    </filter>
  </defs>
  <g id="Group_4" data-name="Group 4" transform="translate(9 6)">
    <g transform="matrix(1, 0, 0, 1, -9, -6)" filter="url(#Rectangle_1)">
      <g id="Rectangle_1-2" data-name="Rectangle 1" transform="translate(9 6)" stroke="#6c1ffc" stroke-width="8" fill="url(#linear-gradient)">
        <rect width="200" height="250" rx="50" stroke="none"/>
        <rect x="4" y="4" width="192" height="242" rx="46" fill="none"/>
      </g>
    </g>
    <g id="Group_1" data-name="Group 1" transform="translate(-6.499 -1.499)">
      <g transform="matrix(1, 0, 0, 1, -2.5, -4.5)" filter="url(#Icon_metro-sun)">
        <path id="Icon_metro-sun-3" data-name="Icon metro-sun" d="M55.888,28.093A27.152,27.152,0,1,0,83.04,55.246,27.185,27.185,0,0,0,55.888,28.093Zm0-7.758a3.88,3.88,0,0,0,3.879-3.879V8.7a3.879,3.879,0,1,0-7.758,0v7.758A3.88,3.88,0,0,0,55.888,20.336Zm0,69.82a3.88,3.88,0,0,0-3.879,3.879v7.758a3.879,3.879,0,0,0,7.758,0V94.035A3.88,3.88,0,0,0,55.888,90.156Zm30.168-59.6,5.485-5.485a3.878,3.878,0,0,0-5.485-5.485l-5.485,5.485a3.878,3.878,0,0,0,5.485,5.485ZM25.721,79.933l-5.485,5.485A3.878,3.878,0,0,0,25.721,90.9l5.485-5.485a3.878,3.878,0,0,0-5.485-5.485ZM20.978,55.246A3.88,3.88,0,0,0,17.1,51.367H9.342a3.879,3.879,0,1,0,0,7.758H17.1A3.88,3.88,0,0,0,20.978,55.246Zm81.457-3.879H94.677a3.879,3.879,0,1,0,0,7.758h7.758a3.879,3.879,0,0,0,0-7.758ZM25.716,30.558A3.878,3.878,0,1,0,31.2,25.073l-5.485-5.485a3.878,3.878,0,0,0-5.485,5.485Zm60.345,49.37a3.878,3.878,0,0,0-5.485,5.485L86.061,90.9a3.878,3.878,0,0,0,5.485-5.485Z" transform="translate(53.04 75.68)" fill="#fff"/>
      </g>
      <g transform="matrix(1, 0, 0, 1, -2.5, -4.5)" filter="url(#Icon_metro-sun-2)">
        <path id="Icon_metro-sun-4" data-name="Icon metro-sun" d="M55.888,28.093A27.152,27.152,0,1,0,83.04,55.246,27.185,27.185,0,0,0,55.888,28.093Zm0-7.758a3.88,3.88,0,0,0,3.879-3.879V8.7a3.879,3.879,0,1,0-7.758,0v7.758A3.88,3.88,0,0,0,55.888,20.336Zm0,69.82a3.88,3.88,0,0,0-3.879,3.879v7.758a3.879,3.879,0,0,0,7.758,0V94.035A3.88,3.88,0,0,0,55.888,90.156Zm30.168-59.6,5.485-5.485a3.878,3.878,0,0,0-5.485-5.485l-5.485,5.485a3.878,3.878,0,0,0,5.485,5.485ZM25.721,79.933l-5.485,5.485A3.878,3.878,0,0,0,25.721,90.9l5.485-5.485a3.878,3.878,0,0,0-5.485-5.485ZM20.978,55.246A3.88,3.88,0,0,0,17.1,51.367H9.342a3.879,3.879,0,1,0,0,7.758H17.1A3.88,3.88,0,0,0,20.978,55.246Zm81.457-3.879H94.677a3.879,3.879,0,1,0,0,7.758h7.758a3.879,3.879,0,0,0,0-7.758ZM25.716,30.558A3.878,3.878,0,1,0,31.2,25.073l-5.485-5.485a3.878,3.878,0,0,0-5.485,5.485Zm60.345,49.37a3.878,3.878,0,0,0-5.485,5.485L86.061,90.9a3.878,3.878,0,0,0,5.485-5.485Z" transform="translate(53.04 75.68)" fill="#fff"/>
      </g>
    </g>
    <g transform="matrix(1, 0, 0, 1, -9, -6)" filter="url(#Ellipse_1)">
      <circle id="Ellipse_1-2" data-name="Ellipse 1" cx="17" cy="17" r="17" transform="translate(92 114)" fill="#fff"/>
    </g>
    <g transform="matrix(1, 0, 0, 1, -9, -6)" filter="url(#Ellipse_2)">
      <circle id="Ellipse_2-2" data-name="Ellipse 2" cx="17" cy="17" r="17" transform="translate(92 114)" fill="#fff"/>
    </g>
  </g>
</svg>
